<?xml version="1.0" encoding="utf-8"?>
<!-- Generator: Adobe Illustrator 26.0.2, SVG Export Plug-In . SVG Version: 6.00 Build 0)  -->
<svg version="1.1" id="Layer_1" xmlns="http://www.w3.org/2000/svg" xmlns:xlink="http://www.w3.org/1999/xlink" x="0px" y="0px"
	 viewBox="0 0 752 752" style="enable-background:new 0 0 752 752;" xml:space="preserve">
<style type="text/css">
	.st0{fill-rule:evenodd;clip-rule:evenodd;}
</style>
<path class="st0" d="M408.4,206.1c4.9,0,9.3,2,12.5,5.2c3.2,3.2,5.2,7.6,5.2,12.5c0,4.9-2,9.3-5.2,12.5c-3.2,3.2-7.6,5.2-12.5,5.2
	s-9.3-2-12.5-5.2c-3.2-3.2-5.2-7.6-5.2-12.5c0-4.8,2-9.3,5.2-12.5C399.2,208.1,403.6,206.1,408.4,206.1L408.4,206.1z M408.4,345.9
	c4.9,0,9.3,2,12.5,5.2c3.2,3.2,5.2,7.6,5.2,12.5c0,4.8-2,9.3-5.2,12.5c-3.2,3.2-7.6,5.2-12.5,5.2s-9.3-2-12.5-5.2
	c-3.2-3.2-5.2-7.6-5.2-12.5s2-9.3,5.2-12.5C399.2,347.9,403.6,345.9,408.4,345.9L408.4,345.9z M343.6,345.9c4.9,0,9.3,2,12.5,5.2
	c3.2,3.2,5.2,7.6,5.2,12.5c0,4.8-2,9.3-5.2,12.5c-3.2,3.2-7.6,5.2-12.5,5.2s-9.3-2-12.5-5.2c-3.2-3.2-5.2-7.6-5.2-12.5
	s2-9.3,5.2-12.5C334.3,347.9,338.7,345.9,343.6,345.9L343.6,345.9z M278.7,276c4.9,0,9.3,2,12.5,5.2c3.2,3.2,5.2,7.6,5.2,12.5
	s-2,9.3-5.2,12.5c-3.2,3.2-7.6,5.2-12.5,5.2c-4.9,0-9.3-2-12.5-5.2c-3.2-3.2-5.2-7.6-5.2-12.5s2-9.3,5.2-12.5
	C269.4,278,273.8,276,278.7,276z M408.4,276c4.9,0,9.3,2,12.5,5.2c3.2,3.2,5.2,7.6,5.2,12.5s-2,9.3-5.2,12.5
	c-3.2,3.2-7.6,5.2-12.5,5.2s-9.3-2-12.5-5.2c-3.2-3.2-5.2-7.6-5.2-12.5s2-9.3,5.2-12.5C399.2,278,403.6,276,408.4,276z M343.6,276
	c4.9,0,9.3,2,12.5,5.2c3.2,3.2,5.2,7.6,5.2,12.5s-1.9,9.3-5.2,12.5c-3.2,3.2-7.6,5.2-12.5,5.2c-4.8,0-9.3-2-12.5-5.2
	c-3.2-3.2-5.2-7.6-5.2-12.5s2-9.3,5.2-12.5C334.3,278,338.7,276,343.6,276z M343.6,206.1c4.9,0,9.3,2,12.5,5.2
	c3.2,3.2,5.2,7.7,5.2,12.5c0,4.9-2,9.3-5.2,12.5c-3.2,3.2-7.6,5.2-12.5,5.2s-9.3-2-12.5-5.2c-3.2-3.2-5.2-7.6-5.2-12.5
	c0-4.9,2-9.3,5.2-12.5C334.3,208.1,338.7,206.1,343.6,206.1z M278.7,206.1c4.9,0,9.3,2,12.5,5.2c3.2,3.2,5.2,7.6,5.2,12.5
	c0,4.8-2,9.3-5.2,12.5c-3.2,3.2-7.7,5.2-12.5,5.2c-4.9,0-9.3-2-12.5-5.2c-3.2-3.2-5.2-7.6-5.2-12.5c0-4.9,1.9-9.3,5.2-12.5
	C269.4,208.1,273.8,206.1,278.7,206.1z M408.4,415.8c4.9,0,9.3,2,12.5,5.2c3.2,3.2,5.2,7.6,5.2,12.5c0,4.8-2,9.3-5.2,12.5
	c-3.2,3.2-7.6,5.2-12.5,5.2c-4.9,0-9.3-2-12.5-5.2c-3.2-3.2-5.2-7.6-5.2-12.5c0-4.9,2-9.3,5.2-12.5
	C399.2,417.8,403.6,415.8,408.4,415.8z M343.6,415.8c4.9,0,9.3,2,12.5,5.2c3.2,3.2,5.2,7.6,5.2,12.5c0,4.8-2,9.3-5.2,12.5
	c-3.2,3.2-7.6,5.2-12.5,5.2s-9.3-2-12.5-5.2c-3.2-3.2-5.2-7.6-5.2-12.5c0-4.9,2-9.3,5.2-12.5C334.3,417.8,338.7,415.8,343.6,415.8z
	 M466.9,415.8c4.9,0,9.3,2,12.5,5.2c3.2,3.2,5.2,7.6,5.2,12.5c0,4.8-1.9,9.3-5.2,12.5c-3.2,3.2-7.6,5.2-12.5,5.2s-9.3-2-12.5-5.2
	c-3.2-3.2-5.2-7.6-5.2-12.5c0-4.9,2-9.3,5.2-12.5C457.6,417.8,462,415.8,466.9,415.8z M408.4,484.8c4.9,0,9.3,2,12.5,5.2
	c3.2,3.2,5.2,7.6,5.2,12.5c0,4.9-2,9.3-5.2,12.5c-3.2,3.2-7.6,5.2-12.5,5.2s-9.3-2-12.5-5.2c-3.2-3.2-5.2-7.6-5.2-12.5
	c0-4.8,2-9.3,5.2-12.5C399.2,486.8,403.6,484.8,408.4,484.8L408.4,484.8z M343.6,484.8c4.9,0,9.3,2,12.5,5.2
	c3.2,3.2,5.2,7.7,5.2,12.5c0,4.9-2,9.3-5.2,12.5c-3.2,3.2-7.6,5.2-12.5,5.2s-9.3-2-12.5-5.2c-3.2-3.2-5.2-7.6-5.2-12.5
	c0-4.9,2-9.3,5.2-12.5C334.3,486.8,338.7,484.8,343.6,484.8z M466.9,484.8c4.9,0,9.3,2,12.5,5.2c3.2,3.2,5.2,7.6,5.2,12.5
	c0,4.8-2,9.3-5.2,12.5c-3.2,3.2-7.6,5.2-12.5,5.2c-4.9,0-9.3-2-12.5-5.2c-3.2-3.2-5.2-7.6-5.2-12.5c0-4.9,2-9.3,5.2-12.5
	C457.6,486.8,462,484.8,466.9,484.8z M278.7,345.9c4.9,0,9.3,2,12.5,5.2c3.2,3.2,5.2,7.6,5.2,12.5c0,4.8-2,9.3-5.2,12.5
	c-3.2,3.2-7.6,5.2-12.5,5.2s-9.3-2-12.5-5.2c-3.2-3.2-5.2-7.6-5.2-12.5s2-9.3,5.2-12.5C269.4,347.9,273.8,345.9,278.7,345.9
	L278.7,345.9z M466.9,345.9c4.9,0,9.3,2,12.5,5.2c3.2,3.2,5.2,7.6,5.2,12.5c0,4.8-2,9.3-5.2,12.5c-3.2,3.2-7.6,5.2-12.5,5.2
	s-9.3-2-12.5-5.2c-3.2-3.2-5.2-7.6-5.2-12.5s2-9.3,5.2-12.5C457.6,347.9,462,345.9,466.9,345.9L466.9,345.9z"/>
</svg>
